# xmcd
#
# Track frame offsets: 
#        150
#        12513
#        29294
#        50442
#        71909
#        87307
#        105176
#        129826
#        148358
#        166074
#        187109
#        208059
#        230334
#        256391
#
# Disc length: 3719 seconds
#
# Revision: 0
# Processed by: cddbd v1.5.2PL0 Copyright (c) Steve Scherf et al.
# Submitted via: ExactAudioCopy v0.99pb4
#
DISCID=c30e850e
DTITLE=Daddy"s  Cash - Body Blues
DYEAR=2013
DGENRE=Blues
TTITLE0=Body Blues
TTITLE1=Imo B Better
TTITLE2=Mr BB King
TTITLE3=I Cried
TTITLE4=Feelin It
TTITLE5=Don't
TTITLE6=You See Me
TTITLE7=I Got It Bad
TTITLE8=The Fillmore
TTITLE9=Hole In The Wall
TTITLE10=Silver And Grey
TTITLE11=Mama Said
TTITLE12=Move On
TTITLE13=Daddy's Groove
EXTD=
EXTT0=
EXTT1=
EXTT2=
EXTT3=
EXTT4=
EXTT5=
EXTT6=
EXTT7=
EXTT8=
EXTT9=
EXTT10=
EXTT11=
EXTT12=
EXTT13=
PLAYORDER=
